<svg xmlns="http://www.w3.org/2000/svg" width="256" height="256" viewBox="0 0 100 100"><rect width="100" height="100" rx="50" fill="#a51c30"></rect><path fill="#ffffff" d="M28.08 17.60Q33.48 17.60 37.62 19.49Q41.76 21.38 45.27 25.16L45.27 25.16L39.96 31.28Q37.17 28.76 34.52 27.50Q31.86 26.24 28.89 26.24L28.89 26.24Q25.47 26.24 23.49 28.35Q21.51 30.47 21.51 33.89L21.51 33.89Q21.51 37.31 23.58 39.47Q25.65 41.63 31.68 43.97L31.68 43.97Q39.42 47.12 43.07 51.35Q46.71 55.58 46.71 63.32L46.71 63.32Q46.71 68.63 44.28 73.00Q41.85 77.36 37.31 79.88Q32.76 82.40 26.73 82.40L26.73 82.40Q20.52 82.40 15.93 80.19Q11.34 77.99 7.56 73.94L7.56 73.94L13.32 67.64Q16.56 70.52 19.53 72.05Q22.50 73.58 26.01 73.58L26.01 73.58Q30.15 73.58 32.45 71.02Q34.74 68.45 34.74 64.04L34.74 64.04Q34.74 60.17 32.72 57.69Q30.69 55.22 25.20 53.15L25.20 53.15Q16.92 49.82 13.28 45.50Q9.63 41.18 9.63 34.70L9.63 34.70Q9.63 29.75 12.02 25.88Q14.40 22.01 18.63 19.80Q22.86 17.60 28.08 17.60L28.08 17.60ZM79.47 48.11Q85.50 49.46 88.97 52.92Q92.44 56.39 92.44 63.23L92.44 63.23Q92.44 72.23 86.36 76.64Q80.28 81.05 69.84 81.05L69.84 81.05L54.18 81.05L54.18 18.86L67.77 18.86Q78.48 18.86 84.33 22.91Q90.19 26.96 90.19 34.70L90.19 34.70Q90.19 39.92 87.26 43.34Q84.33 46.76 79.47 48.11L79.47 48.11ZM68.94 27.32L65.61 27.32L65.61 44.51L69.48 44.51Q78.57 44.51 78.57 35.69L78.57 35.69Q78.57 31.28 76.28 29.30Q73.98 27.32 68.94 27.32L68.94 27.32ZM69.94 72.41Q75.16 72.41 77.85 70.20Q80.55 68 80.55 62.78L80.55 62.78Q80.55 57.56 78.03 55.08Q75.52 52.61 70.20 52.61L70.20 52.61L65.61 52.61L65.61 72.41L69.94 72.41Z"></path></svg>